# xmcd
#
# Track frame offsets:
#	150
#	16570
#	31565
#	51554
#	62798
#	82935
#	102741
#	118628
#	145713
#	167754
#	180993
#	196296
#
# Disc length: 2868 seconds
# Revision: 0
# Processed by: cddbd v1.5.2PL0 Copyright (c) Steve Scherf et al.
# Submitted via: dBpowerAMP V12.0
#
DISCID=930b320c
DTITLE=Jeff Bridges - Jeff Bridges
DYEAR=2011
DGENRE=Country
TTITLE0=What a Little Bit of Love Can Do
TTITLE1=Falling Short
TTITLE2=Everything But Love
TTITLE3=Tumbling Vine
TTITLE4=Nothing Yet
TTITLE5=Blue Car
TTITLE6=Maybe I Missed the Point
TTITLE7=Slow Boat
TTITLE8=Either Way
TTITLE9=The Quest
TTITLE10=I Will Wait
TTITLE11=Shotgun Bride
EXTD=
EXTT0=
EXTT1=
EXTT2=
EXTT3=
EXTT4=
EXTT5=
EXTT6=
EXTT7=
EXTT8=
EXTT9=
EXTT10=
EXTT11=
PLAYORDER=
